0
SECTION
2
HEADER
9
$INSUNITS
70
4
0
ENDSEC
0
SECTION
2
TABLES
0
TABLE
2
LTYPE
0
LTYPE
72
65
70
64
2
CONTINUOUS
3
______
73
0
40
0
0
ENDTAB
0
TABLE
2
LAYER
0
ENDTAB
0
ENDSEC
0
SECTION
2
ENTITIES
0
LINE
8
front_outsideCutPath
10
25.0625
20
6
11
40.1375
21
6
0
LINE
8
front_outsideCutPath
10
40.1375
20
6
11
40.1375
21
3
0
LINE
8
front_outsideCutPath
10
40.1375
20
3
11
55.8125
21
3
0
LINE
8
front_outsideCutPath
10
55.8125
20
3
11
55.8125
21
6
0
LINE
8
front_outsideCutPath
10
55.8125
20
6
11
70.8875
21
6
0
LINE
8
front_outsideCutPath
10
70.8875
20
6
11
70.8875
21
3
0
LINE
8
front_outsideCutPath
10
70.8875
20
3
11
86.5625
21
3
0
LINE
8
front_outsideCutPath
10
86.5625
20
3
11
86.5625
21
6
0
LINE
8
front_outsideCutPath
10
86.5625
20
6
11
101.6375
21
6
0
LINE
8
front_outsideCutPath
10
101.6375
20
6
11
101.6375
21
3
0
LINE
8
front_outsideCutPath
10
101.6375
20
3
11
126.7
21
3
0
LINE
8
front_outsideCutPath
10
126.7
20
3
11
126.7
21
22.1125
0
LINE
8
front_outsideCutPath
10
126.7
20
22.1125
11
123.7
21
22.1125
0
LINE
8
front_outsideCutPath
10
123.7
20
22.1125
11
123.7
21
37.1875
0
LINE
8
front_outsideCutPath
10
123.7
20
37.1875
11
126.7
21
37.1875
0
LINE
8
front_outsideCutPath
10
126.7
20
37.1875
11
126.7
21
56.3
0
LINE
8
front_outsideCutPath
10
126.7
20
56.3
11
0
21
56.3
0
LINE
8
front_outsideCutPath
10
0
20
56.3
11
0
21
37.1875
0
LINE
8
front_outsideCutPath
10
0
20
37.1875
11
3
21
37.1875
0
LINE
8
front_outsideCutPath
10
3
20
37.1875
11
3
21
22.1125
0
LINE
8
front_outsideCutPath
10
3
20
22.1125
11
0
21
22.1125
0
LINE
8
front_outsideCutPath
10
0
20
22.1125
11
0
21
3
0
LINE
8
front_outsideCutPath
10
0
20
3
11
25.0625
21
3
0
LINE
8
front_outsideCutPath
10
25.0625
20
3
11
25.0625
21
6
0
LINE
8
left_outsideCutPath
10
147.8375
20
6
11
162.9125
21
6
0
LINE
8
left_outsideCutPath
10
162.9125
20
6
11
162.9125
21
3
0
LINE
8
left_outsideCutPath
10
162.9125
20
3
11
178.5875
21
3
0
LINE
8
left_outsideCutPath
10
178.5875
20
3
11
178.5875
21
6
0
LINE
8
left_outsideCutPath
10
178.5875
20
6
11
193.6625
21
6
0
LINE
8
left_outsideCutPath
10
193.6625
20
6
11
193.6625
21
3
0
LINE
8
left_outsideCutPath
10
193.6625
20
3
11
208.8
21
3
0
LINE
8
left_outsideCutPath
10
208.8
20
3
11
208.8
21
21.8125
0
LINE
8
left_outsideCutPath
10
208.8
20
21.8125
11
211.8
21
21.8125
0
LINE
8
left_outsideCutPath
10
211.8
20
21.8125
11
211.8
21
37.4875
0
LINE
8
left_outsideCutPath
10
211.8
20
37.4875
11
208.8
21
37.4875
0
LINE
8
left_outsideCutPath
10
208.8
20
37.4875
11
208.8
21
56.3
0
LINE
8
left_outsideCutPath
10
208.8
20
56.3
11
132.7
21
56.3
0
LINE
8
left_outsideCutPath
10
132.7
20
56.3
11
132.7
21
37.4875
0
LINE
8
left_outsideCutPath
10
132.7
20
37.4875
11
129.7
21
37.4875
0
LINE
8
left_outsideCutPath
10
129.7
20
37.4875
11
129.7
21
21.8125
0
LINE
8
left_outsideCutPath
10
129.7
20
21.8125
11
132.7
21
21.8125
0
LINE
8
left_outsideCutPath
10
132.7
20
21.8125
11
132.7
21
3
0
LINE
8
left_outsideCutPath
10
132.7
20
3
11
147.8375
21
3
0
LINE
8
left_outsideCutPath
10
147.8375
20
3
11
147.8375
21
6
0
LINE
8
back_outsideCutPath
10
25.0625
20
62.3
11
40.1375
21
62.3
0
LINE
8
back_outsideCutPath
10
40.1375
20
62.3
11
40.1375
21
59.3
0
LINE
8
back_outsideCutPath
10
40.1375
20
59.3
11
55.8125
21
59.3
0
LINE
8
back_outsideCutPath
10
55.8125
20
59.3
11
55.8125
21
62.3
0
LINE
8
back_outsideCutPath
10
55.8125
20
62.3
11
70.8875
21
62.3
0
LINE
8
back_outsideCutPath
10
70.8875
20
62.3
11
70.8875
21
59.3
0
LINE
8
back_outsideCutPath
10
70.8875
20
59.3
11
86.5625
21
59.3
0
LINE
8
back_outsideCutPath
10
86.5625
20
59.3
11
86.5625
21
62.3
0
LINE
8
back_outsideCutPath
10
86.5625
20
62.3
11
101.6375
21
62.3
0
LINE
8
back_outsideCutPath
10
101.6375
20
62.3
11
101.6375
21
59.3
0
LINE
8
back_outsideCutPath
10
101.6375
20
59.3
11
126.7
21
59.3
0
LINE
8
back_outsideCutPath
10
126.7
20
59.3
11
126.7
21
78.4125
0
LINE
8
back_outsideCutPath
10
126.7
20
78.4125
11
123.7
21
78.4125
0
LINE
8
back_outsideCutPath
10
123.7
20
78.4125
11
123.7
21
93.4875
0
LINE
8
back_outsideCutPath
10
123.7
20
93.4875
11
126.7
21
93.4875
0
LINE
8
back_outsideCutPath
10
126.7
20
93.4875
11
126.7
21
112.6
0
LINE
8
back_outsideCutPath
10
126.7
20
112.6
11
0
21
112.6
0
LINE
8
back_outsideCutPath
10
0
20
112.6
11
0
21
93.4875
0
LINE
8
back_outsideCutPath
10
0
20
93.4875
11
3
21
93.4875
0
LINE
8
back_outsideCutPath
10
3
20
93.4875
11
3
21
78.4125
0
LINE
8
back_outsideCutPath
10
3
20
78.4125
11
0
21
78.4125
0
LINE
8
back_outsideCutPath
10
0
20
78.4125
11
0
21
59.3
0
LINE
8
back_outsideCutPath
10
0
20
59.3
11
25.0625
21
59.3
0
LINE
8
back_outsideCutPath
10
25.0625
20
59.3
11
25.0625
21
62.3
0
LINE
8
right_outsideCutPath
10
147.8375
20
62.3
11
162.9125
21
62.3
0
LINE
8
right_outsideCutPath
10
162.9125
20
62.3
11
162.9125
21
59.3
0
LINE
8
right_outsideCutPath
10
162.9125
20
59.3
11
178.5875
21
59.3
0
LINE
8
right_outsideCutPath
10
178.5875
20
59.3
11
178.5875
21
62.3
0
LINE
8
right_outsideCutPath
10
178.5875
20
62.3
11
193.6625
21
62.3
0
LINE
8
right_outsideCutPath
10
193.6625
20
62.3
11
193.6625
21
59.3
0
LINE
8
right_outsideCutPath
10
193.6625
20
59.3
11
208.8
21
59.3
0
LINE
8
right_outsideCutPath
10
208.8
20
59.3
11
208.8
21
78.1125
0
LINE
8
right_outsideCutPath
10
208.8
20
78.1125
11
211.8
21
78.1125
0
LINE
8
right_outsideCutPath
10
211.8
20
78.1125
11
211.8
21
93.7875
0
LINE
8
right_outsideCutPath
10
211.8
20
93.7875
11
208.8
21
93.7875
0
LINE
8
right_outsideCutPath
10
208.8
20
93.7875
11
208.8
21
112.6
0
LINE
8
right_outsideCutPath
10
208.8
20
112.6
11
132.7
21
112.6
0
LINE
8
right_outsideCutPath
10
132.7
20
112.6
11
132.7
21
93.7875
0
LINE
8
right_outsideCutPath
10
132.7
20
93.7875
11
129.7
21
93.7875
0
LINE
8
right_outsideCutPath
10
129.7
20
93.7875
11
129.7
21
78.1125
0
LINE
8
right_outsideCutPath
10
129.7
20
78.1125
11
132.7
21
78.1125
0
LINE
8
right_outsideCutPath
10
132.7
20
78.1125
11
132.7
21
59.3
0
LINE
8
right_outsideCutPath
10
132.7
20
59.3
11
147.8375
21
59.3
0
LINE
8
right_outsideCutPath
10
147.8375
20
59.3
11
147.8375
21
62.3
0
LINE
8
bottom_outsideCutPath
10
255.2375
20
6
11
270.3125
21
6
0
LINE
8
bottom_outsideCutPath
10
270.3125
20
6
11
270.3125
21
3
0
LINE
8
bottom_outsideCutPath
10
270.3125
20
3
11
285.9875
21
3
0
LINE
8
bottom_outsideCutPath
10
285.9875
20
3
11
285.9875
21
6
0
LINE
8
bottom_outsideCutPath
10
285.9875
20
6
11
301.0625
21
6
0
LINE
8
bottom_outsideCutPath
10
301.0625
20
6
11
301.0625
21
3
0
LINE
8
bottom_outsideCutPath
10
301.0625
20
3
11
316.7375
21
3
0
LINE
8
bottom_outsideCutPath
10
316.7375
20
3
11
316.7375
21
6
0
LINE
8
bottom_outsideCutPath
10
316.7375
20
6
11
338.5
21
6
0
LINE
8
bottom_outsideCutPath
10
338.5
20
6
11
338.5
21
20.8375
0
LINE
8
bottom_outsideCutPath
10
338.5
20
20.8375
11
341.5
21
20.8375
0
LINE
8
bottom_outsideCutPath
10
341.5
20
20.8375
11
341.5
21
36.5125
0
LINE
8
bottom_outsideCutPath
10
341.5
20
36.5125
11
338.5
21
36.5125
0
LINE
8
bottom_outsideCutPath
10
338.5
20
36.5125
11
338.5
21
51.5875
0
LINE
8
bottom_outsideCutPath
10
338.5
20
51.5875
11
341.5
21
51.5875
0
LINE
8
bottom_outsideCutPath
10
341.5
20
51.5875
11
341.5
21
67.2625
0
LINE
8
bottom_outsideCutPath
10
341.5
20
67.2625
11
338.5
21
67.2625
0
LINE
8
bottom_outsideCutPath
10
338.5
20
67.2625
11
338.5
21
82.1
0
LINE
8
bottom_outsideCutPath
10
338.5
20
82.1
11
316.7375
21
82.1
0
LINE
8
bottom_outsideCutPath
10
316.7375
20
82.1
11
316.7375
21
85.1
0
LINE
8
bottom_outsideCutPath
10
316.7375
20
85.1
11
301.0625
21
85.1
0
LINE
8
bottom_outsideCutPath
10
301.0625
20
85.1
11
301.0625
21
82.1
0
LINE
8
bottom_outsideCutPath
10
301.0625
20
82.1
11
285.9875
21
82.1
0
LINE
8
bottom_outsideCutPath
10
285.9875
20
82.1
11
285.9875
21
85.1
0
LINE
8
bottom_outsideCutPath
10
285.9875
20
85.1
11
270.3125
21
85.1
0
LINE
8
bottom_outsideCutPath
10
270.3125
20
85.1
11
270.3125
21
82.1
0
LINE
8
bottom_outsideCutPath
10
270.3125
20
82.1
11
255.2375
21
82.1
0
LINE
8
bottom_outsideCutPath
10
255.2375
20
82.1
11
255.2375
21
85.1
0
LINE
8
bottom_outsideCutPath
10
255.2375
20
85.1
11
239.5625
21
85.1
0
LINE
8
bottom_outsideCutPath
10
239.5625
20
85.1
11
239.5625
21
82.1
0
LINE
8
bottom_outsideCutPath
10
239.5625
20
82.1
11
217.8
21
82.1
0
LINE
8
bottom_outsideCutPath
10
217.8
20
82.1
11
217.8
21
67.2625
0
LINE
8
bottom_outsideCutPath
10
217.8
20
67.2625
11
214.8
21
67.2625
0
LINE
8
bottom_outsideCutPath
10
214.8
20
67.2625
11
214.8
21
51.5875
0
LINE
8
bottom_outsideCutPath
10
214.8
20
51.5875
11
217.8
21
51.5875
0
LINE
8
bottom_outsideCutPath
10
217.8
20
51.5875
11
217.8
21
36.5125
0
LINE
8
bottom_outsideCutPath
10
217.8
20
36.5125
11
214.8
21
36.5125
0
LINE
8
bottom_outsideCutPath
10
214.8
20
36.5125
11
214.8
21
20.8375
0
LINE
8
bottom_outsideCutPath
10
214.8
20
20.8375
11
217.8
21
20.8375
0
LINE
8
bottom_outsideCutPath
10
217.8
20
20.8375
11
217.8
21
6
0
LINE
8
bottom_outsideCutPath
10
217.8
20
6
11
239.5625
21
6
0
LINE
8
bottom_outsideCutPath
10
239.5625
20
6
11
239.5625
21
3
0
LINE
8
bottom_outsideCutPath
10
239.5625
20
3
11
255.2375
21
3
0
LINE
8
bottom_outsideCutPath
10
255.2375
20
3
11
255.2375
21
6
0
ENDSEC
0
EOF